<svg xmlns="http://www.w3.org/2000/svg" viewBox="0 0 32 32">
    <g fill="none" fill-rule="evenodd">
        <rect fill="#671974" width="32" height="32" rx="16"/>
        <g id="svg_2" fill="#ffffff">
            <path
                    d="m13.51,7.84q0,-0.04 -0.03,-0.06q-1.53,-1.08 -3.05,-2.15c-0.15,-0.1 -0.17,-0.3 -0.08,-0.45q0.12,-0.21 0.4,-0.21q1.66,0 3.33,0q0.34,0 0.45,-0.34q0.52,-1.56 1.08,-3.1q0.07,-0.18 0.13,-0.24c0.14,-0.15 0.36,-0.11 0.46,0.07q0.06,0.1 0.1,0.21q0.52,1.51 1.05,3.02c0.08,0.22 0.19,0.37 0.43,0.37q1.68,0.01 3.36,0.01c0.24,0 0.52,0.3 0.39,0.54q-0.05,0.09 -0.24,0.22q-0.93,0.63 -1.83,1.28c-0.3,0.22 -0.74,0.49 -1.1,0.77a0.06,0.05 70.6 0 0 -0.02,0.04q0,0.15 0.03,0.22q0.61,1.6 1.18,3.22q0.15,0.42 -0.25,0.55c-0.13,0.04 -0.25,-0.01 -0.37,-0.09q-1.48,-1.08 -2.98,-2.14a0.06,0.06 0 0 0 -0.07,0q-0.88,0.6 -1.73,1.23c-0.41,0.3 -0.89,0.61 -1.33,0.92c-0.05,0.04 -0.13,0.08 -0.21,0.08c-0.44,-0.04 -0.35,-0.52 -0.23,-0.81q0.54,-1.49 1.1,-2.99c0.02,-0.05 0.02,-0.14 0.03,-0.19l0,0z"
                    id="svg_3"/>
            <path
                    d="m7.15,7.79c0.49,-0.14 0.96,-0.22 1.15,-0.77q0.09,-0.25 0.17,-0.59q0.03,-0.13 0.15,-0.19c0.19,-0.09 0.36,0.04 0.4,0.23c0.11,0.48 0.24,0.96 0.74,1.14q0.12,0.04 0.56,0.15c0.27,0.07 0.29,0.46 0.07,0.6q-0.06,0.04 -0.26,0.08c-0.58,0.12 -0.87,0.29 -1.04,0.88c-0.07,0.24 -0.08,0.63 -0.46,0.53c-0.13,-0.03 -0.19,-0.13 -0.2,-0.26q-0.08,-0.96 -1.03,-1.16c-0.14,-0.03 -0.28,0 -0.4,-0.13c-0.16,-0.17 -0.11,-0.45 0.13,-0.52l0.01,0z"
                    id="svg_4"/>
            <path
                    d="m22.76,9.3q-0.15,-0.57 -0.72,-0.78c-0.14,-0.05 -0.56,-0.08 -0.69,-0.26c-0.17,-0.23 0.03,-0.43 0.24,-0.5c0.56,-0.18 0.96,-0.31 1.15,-0.93c0.05,-0.15 0.1,-0.49 0.24,-0.57c0.2,-0.12 0.4,0.03 0.44,0.24c0.12,0.6 0.27,1 0.91,1.16c0.2,0.05 0.48,0.1 0.55,0.25c0.06,0.14 0.02,0.3 -0.08,0.39q-0.07,0.06 -0.23,0.1c-0.32,0.07 -0.64,0.16 -0.87,0.41c-0.18,0.21 -0.23,0.49 -0.28,0.77c-0.02,0.13 -0.12,0.25 -0.25,0.28c-0.33,0.06 -0.35,-0.35 -0.41,-0.56l0,0z"
                    id="svg_5"/>
            <path
                    d="m5.62,14.92c0.8,1.74 2,3.14 3.48,4.43q1.04,0.91 2.07,1.84a0.03,0.03 0 0 1 0,0.05c-0.72,0.45 -1.66,0.65 -2.5,0.69q-2.57,0.11 -4.85,-1.05q-0.28,-0.14 -0.55,-0.28a0.11,0.11 -89.7 0 1 -0.05,-0.05q-0.27,-0.57 -0.46,-1.16q-0.52,-1.59 -0.71,-3.26q-0.27,-2.34 -0.2,-4.69c0.01,-0.3 0,-0.52 0.37,-0.49q2.89,0.21 5.58,1.11q0.53,0.18 1.2,0.47q2,0.87 3.58,2.37c1.54,1.47 2.59,3.49 2.7,5.62c0.06,1.07 -0.18,2.18 -0.59,3.17a0.03,0.03 43.4 0 1 -0.06,0q-0.74,-1.59 -1.92,-2.9q-1.65,-1.84 -3.47,-3.07q-1.48,-1 -2.56,-1.85c-0.36,-0.29 -0.7,-0.63 -1.04,-0.96q-0.04,-0.04 -0.02,0.01l0,0z"
                    id="svg_6"/>
            <path
                    d="m26.26,14.89q-1.14,1.16 -2.49,2.07q-0.78,0.52 -1.55,1.06q-1.62,1.13 -2.92,2.6q-2.32,2.63 -2.81,6.15q-0.17,1.21 0,2.37c0.08,0.59 0.5,1.29 -0.29,1.6c-0.83,0.33 -1.09,-0.51 -1.17,-1.14c-0.34,-2.55 0.29,-5.2 1.61,-7.39q0.01,-0.02 0.01,-0.05c-0.22,-1.66 0.06,-3.32 0.81,-4.8c1.35,-2.64 3.88,-4.38 6.64,-5.29q2.7,-0.89 5.54,-1.11c0.17,-0.01 0.32,0.07 0.33,0.24q0.17,3.15 -0.4,6.25q-0.28,1.48 -0.84,2.94c-0.07,0.17 -0.13,0.18 -0.3,0.27q-1.18,0.63 -2.56,0.99c-1.65,0.43 -3.62,0.43 -5.16,-0.39a0.04,0.04 32.9 0 1 -0.01,-0.06q0.15,-0.19 0.35,-0.37q1.08,-0.94 2.15,-1.88q1.2,-1.05 2.15,-2.51q0.29,-0.44 0.9,-1.56a0,0 0 0 0 0,0l0.01,-0.01z"
                    id="svg_7"/>
            <path
                    d="m15.64,15.21c-0.12,-0.73 -0.44,-1.05 -1.15,-1.19c-0.36,-0.07 -0.47,-0.53 -0.06,-0.64c0.44,-0.12 0.85,-0.23 1.05,-0.69q0.11,-0.25 0.18,-0.64q0.02,-0.09 0.11,-0.15c0.23,-0.16 0.4,-0.04 0.46,0.2c0.12,0.51 0.21,0.9 0.73,1.13c0.16,0.07 0.4,0.1 0.56,0.17c0.23,0.1 0.3,0.41 0.07,0.56c-0.14,0.09 -0.38,0.11 -0.5,0.15q-0.74,0.25 -0.83,1.1c-0.03,0.26 -0.36,0.48 -0.55,0.21q-0.05,-0.06 -0.07,-0.21l0,-0.01z"
                    id="svg_8"/>
            <path
                    d="m11.06,22.76c0.33,-0.12 0.67,-0.3 0.99,-0.48q0.02,-0.01 0.04,0.01q1.44,1.93 1.8,4.31a0.11,0.11 -9.1 0 1 -0.09,0.12q-4.34,0.73 -7.62,-1.97c-0.76,-0.62 -1.41,-1.43 -2,-2.22a0.03,0.03 0 0 1 0.04,-0.05c1.36,0.53 2.81,0.77 4.28,0.75q1.31,-0.02 2.55,-0.48l0,0z"
                    id="svg_9"/>
            <path
                    d="m23.62,26.06c-1.01,0.46 -2.08,0.74 -3.18,0.81c-0.82,0.05 -1.63,0.02 -2.42,-0.18a0.03,0.03 0 0 1 -0.02,-0.04q0.04,-0.44 0.19,-1.06q0.45,-1.8 1.56,-3.32a0.02,0.02 34 0 1 0.03,0c1.5,0.92 3.39,1.11 5.08,0.89q1.43,-0.18 2.75,-0.69a0.04,0.04 0 0 1 0.05,0.06c-1.05,1.52 -2.34,2.75 -4.04,3.53z"
                    id="svg_10"/>
        </g>
    </g>
</svg>
